{
  "accessors": [
    {
      "bufferView": 2,
      "componentType": 5126,
      "count": 820,
      "max": [
        1.0854560136795044,
        0.9718852639198303,
        2.2343029975891113
      ],
      "min": [
        -1.0854560136795044,
        -0.9718852639198303,
        -1.0158655643463135
      ],
      "type": "VEC3"
    },
    {
      "bufferView": 2,
      "byteOffset": 9840,
      "componentType": 5126,
      "count": 820,
      "max": [
        0.9984820485115051,
        0.9999420046806335,
        0.6500381827354431
      ],
      "min": [
        -0.9984820485115051,
        -0.9999420046806335,
        -1.0
      ],
      "type": "VEC3"
    },
    {
      "bufferView": 1,
      "componentType": 5126,
      "count": 820,
      "max": [
        0.1383952796459198,
        0.9139541983604431
      ],
      "min": [
        0.024094339460134506,
        0.8329163789749146
      ],
      "type": "VEC2"
    },
    {
      "bufferView": 0,
      "componentType": 5125,
      "count": 1302,
      "type": "SCALAR"
    },
    {
      "bufferView": 2,
      "byteOffset": 19680,
      "componentType": 5126,
      "count": 144,
      "max": [
        1.25,
        1.1044576168060303,
        0.7946602702140808
      ],
      "min": [
        -1.25,
        -1.0834659337997437,
        -0.20875665545463562
      ],
      "type": "VEC3"
    },
    {
      "bufferView": 2,
      "byteOffset": 21408,
      "componentType": 5126,
      "count": 144,
      "max": [
        0.9021939039230347,
        0.9757180213928223,
        0.8312969207763672
      ],
      "min": [
        -0.8933601975440979,
        -0.921707034111023,
        -0.9999920129776001
      ],
      "type": "VEC3"
    },
    {
      "bufferView": 1,
      "byteOffset": 6560,
      "componentType": 5126,
      "count": 144,
      "max": [
        0.02690921537578106,
        0.8293294906616211
      ],
      "min": [
        0.021270275115966797,
        0.8236905336380005
      ],
      "type": "VEC2"
    },
    {
      "bufferView": 0,
      "byteOffset": 5208,
      "componentType": 5125,
      "count": 216,
      "type": "SCALAR"
    }
  ],
  "asset": {
    "extras": {
      "author": "ThatBrianDude (https://sketchfab.com/ThatBrianDude)",
      "license": "SKETCHFAB Standard (https://sketchfab.com/licenses)",
      "source": "https://sketchfab.com/3d-models/low-poly-rocket-89e69040a4874e789bd8d07f8b94d29a",
      "title": "Low Poly Rocket"
    },
    "generator": "Sketchfab-16.59.0",
    "version": "2.0"
  },
  "bufferViews": [
    {
      "buffer": 0,
      "byteLength": 6072,
      "name": "floatBufferViews",
      "target": 34963
    },
    {
      "buffer": 0,
      "byteLength": 7712,
      "byteOffset": 6072,
      "byteStride": 8,
      "name": "floatBufferViews",
      "target": 34962
    },
    {
      "buffer": 0,
      "byteLength": 23136,
      "byteOffset": 13784,
      "byteStride": 12,
      "name": "floatBufferViews",
      "target": 34962
    }
  ],
  "buffers": [
    {
      "byteLength": 36920,
      "uri": "scene.bin"
    }
  ],
  "images": [
    {
      "uri": "textures/Textire_Atlas_baseColor.png"
    }
  ],
  "materials": [
    {
      "doubleSided": true,
      "name": "Textire_Atlas",
      "pbrMetallicRoughness": {
        "baseColorTexture": {
          "index": 0
        },
        "metallicFactor": 0.0,
        "roughnessFactor": 0.8211145618000169
      }
    },
    {
      "doubleSided": true,
      "name": "Material.001",
      "pbrMetallicRoughness": {
        "baseColorTexture": {
          "index": 0
        },
        "metallicFactor": 0.0,
        "roughnessFactor": 0.8211145618000169
      }
    }
  ],
  "meshes": [
    {
      "name": "Sphere_Textire Atlas_0",
      "primitives": [
        {
          "attributes": {
            "NORMAL": 1,
            "POSITION": 0,
            "TEXCOORD_0": 2
          },
          "indices": 3,
          "material": 0,
          "mode": 4
        }
      ]
    },
    {
      "name": "Torus.001_Material.001_0",
      "primitives": [
        {
          "attributes": {
            "NORMAL": 5,
            "POSITION": 4,
            "TEXCOORD_0": 6
          },
          "indices": 7,
          "material": 1,
          "mode": 4
        }
      ]
    }
  ],
  "nodes": [
    {
      "children": [
        1
      ],
      "matrix": [
        -0.9971365332603455,
        -0.004958897363394482,
        -0.07545953243970871,
        0.0,
        -0.07546046376228333,
        6.151104293868466e-17,
        0.9971488118171692,
        0.0,
        -0.004944758489727974,
        0.9999877214431763,
        -0.0003742006665559128,
        0.0,
        0.0,
        0.0,
        0.0,
        1.0
      ],
      "name": "Sketchfab_model"
    },
    {
      "children": [
        2
      ],
      "matrix": [
        0.009999999776482582,
        0.0,
        0.0,
        0.0,
        0.0,
        0.0,
        0.009999999776482582,
        0.0,
        0.0,
        -0.009999999776482582,
        0.0,
        0.0,
        0.0,
        0.0,
        0.0,
        1.0
      ],
      "name": "82e3e79c214b4c828776941d0a77dbd9.fbx"
    },
    {
      "children": [
        3,
        5
      ],
      "name": "RootNode"
    },
    {
      "children": [
        4
      ],
      "matrix": [
        100.0,
        0.0,
        0.0,
        0.0,
        0.0,
        -1.629206793918314e-05,
        -99.99999999999868,
        0.0,
        0.0,
        99.99999999999868,
        -1.629206793918314e-05,
        0.0,
        0.0,
        0.0,
        0.0,
        1.0
      ],
      "name": "Sphere"
    },
    {
      "mesh": 0,
      "name": "Sphere_Textire Atlas_0"
    },
    {
      "children": [
        6
      ],
      "matrix": [
        20.503026962280273,
        0.0,
        0.0,
        0.0,
        0.0,
        19.829075975131584,
        4.214803110590251,
        0.0,
        0.0,
        -3.0267844706185487,
        14.239891556841554,
        0.0,
        0.0,
        108.08665466308594,
        -68.82949829101563,
        1.0
      ],
      "name": "Torus.001"
    },
    {
      "mesh": 1,
      "name": "Torus.001_Material.001_0"
    }
  ],
  "samplers": [
    {
      "magFilter": 9729,
      "minFilter": 9987,
      "wrapS": 10497,
      "wrapT": 10497
    }
  ],
  "scene": 0,
  "scenes": [
    {
      "name": "Sketchfab_Scene",
      "nodes": [
        0
      ]
    }
  ],
  "textures": [
    {
      "sampler": 0,
      "source": 0
    }
  ]
}
